<?xml version="1.0" encoding="utf-8"?>
<!-- Generator: Adobe Illustrator 19.0.0, SVG Export Plug-In . SVG Version: 6.00 Build 0)  -->
<svg version="1.1" id="icons" xmlns="http://www.w3.org/2000/svg" xmlns:xlink="http://www.w3.org/1999/xlink" x="0px" y="0px"
	 viewBox="-270 340.3 70.5 112.7" style="enable-background:new -270 340.3 70.5 112.7;" xml:space="preserve">
<style type="text/css">
	.st0{fill:#2887C2;}
	.st1{fill:#F3714E;}
	.st2{fill:#0A486A;}
</style>
<title>albert-genetics-genomics</title>
<path class="st0" d="M-254.5,431.8h-10c-0.6,0-1-0.4-1-1s0.4-1,1-1h10c0.6,0,1,0.4,1,1S-253.9,431.8-254.5,431.8z"/>
<path class="st0" d="M-246.6,352.3h-20c-0.6,0-1-0.4-1-1s0.4-1,1-1h20c0.6,0,1,0.4,1,1S-246.1,352.3-246.6,352.3z"/>
<path class="st0" d="M-236,372.3h-10c-0.6,0-1-0.4-1-1s0.4-1,1-1h10c0.6,0,1,0.4,1,1S-235.4,372.3-236,372.3z"/>
<path class="st0" d="M-219.8,392.3h-20c-0.6,0-1-0.4-1-1s0.4-1,1-1h20c0.6,0,1,0.4,1,1S-219.2,392.3-219.8,392.3z"/>
<path class="st0" d="M-223.7,412.3h-20c-0.6,0-1-0.4-1-1s0.4-1,1-1h20c0.6,0,1,0.4,1,1S-223.2,412.3-223.7,412.3z"/>
<path class="st0" d="M-249,452.3h-20c-0.6,0-1-0.4-1-1s0.4-1,1-1h20c0.6,0,1,0.4,1,1S-248.4,452.3-249,452.3z"/>
<path class="st1" d="M-249,342.3h-20c-0.6,0-1-0.4-1-1s0.4-1,1-1h20c0.6,0,1,0.4,1,1S-248.4,342.3-249,342.3z"/>
<path class="st1" d="M-236,362.3h-20c-0.6,0-1-0.4-1-1s0.4-1,1-1h20c0.6,0,1,0.4,1,1S-235.4,362.3-236,362.3z"/>
<path class="st1" d="M-224,382.3h-20c-0.6,0-1-0.4-1-1s0.4-1,1-1h20c0.6,0,1,0.4,1,1S-223.4,382.3-224,382.3z"/>
<path class="st1" d="M-219.8,402.3h-20c-0.6,0-1-0.4-1-1s0.4-1,1-1h20c0.6,0,1,0.4,1,1S-219.2,402.3-219.8,402.3z"/>
<path class="st1" d="M-236,422.3h-20c-0.6,0-1-0.4-1-1s0.4-1,1-1h20c0.6,0,1,0.4,1,1S-235.4,422.3-236,422.3z"/>
<path class="st1" d="M-246,442.3h-20c-0.6,0-1-0.4-1-1s0.4-1,1-1h20c0.6,0,1,0.4,1,1S-245.4,442.3-246,442.3z"/>
<path class="st2" d="M-269,453c-0.6,0-1-0.4-1-1c0-15.1,12.3-20.9,24.1-26.5c12.6-5.9,25.5-12,25.5-29.1s-13-23-25.5-28.8
	c-11.9-5.4-24.2-11.1-24.2-26.2c0-0.6,0.4-1,1-1s1,0.4,1,1c0,13.9,11.2,19,23,24.4c13.1,6,26.7,12.2,26.7,30.6s-13.6,24.8-26.7,31
	c-11.8,5.5-23,10.8-23,24.7C-268,452.6-268.4,453-269,453z"/>
</svg>
